<?xml version="1.0" encoding="UTF-8" standalone="no"?>
<!-- Created with Inkscape (http://www.inkscape.org/) -->

<svg
   id="svg3761"
   sodipodi:docname="bouteille.svg"
   viewBox="0 0 120.00033 374.06006"
   version="1.1"
   inkscape:version="1.2.2 (732a01da63, 2022-12-09)"
   width="120.00034"
   height="374.06006"
   xmlns:inkscape="http://www.inkscape.org/namespaces/inkscape"
   xmlns:sodipodi="http://sodipodi.sourceforge.net/DTD/sodipodi-0.dtd"
   xmlns="http://www.w3.org/2000/svg"
   xmlns:svg="http://www.w3.org/2000/svg"
   xmlns:rdf="http://www.w3.org/1999/02/22-rdf-syntax-ns#"
   xmlns:cc="http://creativecommons.org/ns#"
   xmlns:dc="http://purl.org/dc/elements/1.1/">
  <defs
     id="defs3763" />
  <sodipodi:namedview
     id="base"
     bordercolor="#666666"
     inkscape:pageshadow="2"
     inkscape:window-y="-8"
     pagecolor="#ffffff"
     inkscape:window-height="1017"
     inkscape:window-maximized="1"
     inkscape:zoom="0.5"
     inkscape:window-x="-8"
     showgrid="false"
     borderopacity="1.0"
     inkscape:current-layer="layer1"
     inkscape:cx="-10"
     inkscape:cy="70"
     inkscape:window-width="1920"
     inkscape:pageopacity="0.0"
     inkscape:document-units="px"
     inkscape:showpageshadow="2"
     inkscape:pagecheckerboard="0"
     inkscape:deskcolor="#d1d1d1" />
  <g
     id="layer1"
     inkscape:label="Capa 1"
     inkscape:groupmode="layer"
     transform="translate(-207.16454,-213.11502)">
    <path
       id="path4603"
       sodipodi:nodetypes="cccccccccccc"
       style="fill:#80d62c;stroke:#000000;stroke-width:6.6372"
       d="m 246.7,231.11 c -0.79757,5.3861 -0.009,9.9592 5.6692,11.892 l -2.2124,96.999 c -14.292,10.878 -25.006,13.997 -36.988,45.008 0.0531,54.117 -3.3802,121.5 -2.5581,175.61 13.455,18.204 34.821,23.998 56.554,23.161 21.733,0.83673 43.1,-4.9572 56.554,-23.161 0.82217,-54.111 -2.6112,-121.49 -2.5581,-175.61 -5.2629,-19.219 -18.907,-31.808 -32.564,-45.008 l -2.2124,-96.999 c 5.6777,-1.9324 6.4668,-6.5055 5.6692,-11.892 0.224,-19.594 -45.683,-19.543 -45.354,0 z" />
    <path
       id="path4619"
       sodipodi:nodetypes="cccccccccccccc"
       style="fill:#ffffff"
       d="m 264.44,219.55 c -11.408,0.007 -14.168,0.97452 -14.004,10.746 -0.79757,5.3861 -0.009,9.9592 5.6692,11.892 l -2.2124,96.999 c -14.292,10.878 -25.006,13.997 -36.988,45.008 0.0531,54.117 -3.3802,121.5 -2.5581,175.61 4.2046,5.6887 9.1375,10.179 14.657,13.62 -0.9905,-1.1357 -9.1038,-7.3267 -10.025,-8.573 -0.85139,-56.034 2.6821,-124.68 2.6272,-180.72 12.408,-32.114 20.01,-29.898 34.81,-41.162 l 2.9038,-99.121 c -5.8796,-2.0011 3.4267,-9.6285 4.2526,-15.206 -0.10486,-6.2358 4.3205,-10.599 10.509,-12.998 -0.34434,-0.009 -9.2966,3.9108 -9.6412,3.911 z" />
    <path
       id="path4633"
       sodipodi:nodetypes="cccccccccccc"
       style="fill:none;stroke:#000000;stroke-width:6.6372"
       d="m 246.7,231.11 c -0.79757,5.3861 -0.009,9.9592 5.6692,11.892 l -2.2124,96.999 c -14.292,10.878 -25.006,13.997 -36.988,45.008 0.0531,54.117 -3.3802,121.5 -2.5581,175.61 13.455,18.204 34.821,23.998 56.554,23.161 21.733,0.83673 43.1,-4.9572 56.554,-23.161 0.82217,-54.111 -2.6112,-121.49 -2.5581,-175.61 -5.2629,-19.219 -18.907,-31.808 -32.564,-45.008 l -2.2124,-96.999 c 5.6777,-1.9324 6.4668,-6.5055 5.6692,-11.892 0.224,-19.594 -45.683,-19.543 -45.354,0 z" />
    <path
       id="path4639"
       style="fill:#000000"
       d="m 284.96,239.85 c -5.3803,2.0076 -11.56,3.1432 -18.126,3.1432 -5.7782,0 -11.237,-0.88157 -16.135,-2.4621 4.5301,3.7546 10.363,5.9982 16.737,5.9982 6.7511,0 12.892,-2.5179 17.523,-6.6792 z" />
    <path
       id="path4641"
       sodipodi:nodetypes="cccc"
       style="fill:#4e9a06"
       d="m 251.92,229.38 11.21,2.2988 2.437,-10.364 c 0,0 -15.841,2.7724 -13.647,8.0653 z" />
    <path
       id="path4637"
       style="fill:#000000"
       d="m 284.4,228.23 c -5.3803,2.0076 -11.56,3.1432 -18.126,3.1432 -5.7782,0 -11.237,-0.88157 -16.135,-2.4621 4.5301,3.7546 10.363,5.9982 16.737,5.9982 6.7511,0 12.892,-2.5179 17.523,-6.6792 z" />
    <path
       id="path4624"
       sodipodi:nodetypes="ccccccccccc"
       style="fill:#4e9a06"
       d="m 288.51,231.08 c 1.9709,6.9505 0.79104,10.155 -4.8871,12.087 l 1.8213,97.586 c 14.292,10.878 23.246,13.215 35.228,44.226 -0.0531,54.117 3.3802,121.5 2.5581,175.61 -4.2046,5.6887 -27.327,22.426 -47.318,19.218 26.288,-6.6736 12.997,-151.85 10.966,-194.54 0.10663,-28.985 -3.9467,-36.898 -10.143,-41.514 l -2.3507,-99.674 c 5.8796,-2.0011 4.356,-7.1199 3.5301,-12.698 4.8957,-1.6598 11.432,-10.074 10.594,-0.29619 z" />
    <path
       id="path4643"
       sodipodi:nodetypes="cccc"
       style="fill:#ffffff"
       d="m 284.33,229.18 c 0,0 -4.8496,1.1926 -11.21,2.2988 0,0 7.2422,-7.5986 -2.437,-10.364 0,0 15.841,2.7724 13.647,8.0653 z" />
    <path
       id="path3731"
       style="opacity:0.36466;fill:#ffffff"
       d="m 248.62,575.01 c -9.3999,-1.7554 -17.194,-5.0878 -22.818,-9.7559 l -3.3324,-2.7661 0.14226,-4.5417 0.14226,-4.5417 4.59,-1.3472 c 5.959,-1.7491 14.412,-3.6343 21.276,-4.7449 8.3547,-1.3519 28.156,-1.1927 36.312,0.29179 8.1207,1.4782 14.759,3.1731 22.011,5.6195 5.739,1.9361 6.0934,2.1322 6.0934,3.3714 0,0.93865 -0.87425,2.2147 -3.0506,4.4527 -7.4485,7.6594 -16.536,12.145 -28.747,14.19 -6.9278,1.1603 -25.893,1.0276 -32.618,-0.22821 z" />
    <path
       id="path2943"
       sodipodi:nodetypes="cscsc"
       style="opacity:0.27068;fill:#000000"
       d="m 326.11,560.42 c -18.631,-7.7928 -39.005,-13.926 -61.74,-13.926 -20.009,0 -39.939,5.1473 -56.899,11.283 15.687,-14.574 35.887,-23.283 57.959,-23.283 23.378,0 44.643,9.7736 60.68,25.926 z" />
    <path
       id="path3733"
       style="opacity:0.25188;fill:#ffffff"
       d="m 255.2,344.51 c 0,0 33.634,7.0398 33.634,0 0,-7.0398 30.506,34.417 27.377,37.546 -3.1288,3.1288 -75.873,24.248 -93.081,2.3466 -17.208,-21.902 34.417,-39.11 32.07,-39.892 z" />
    <path
       id="path4635"
       sodipodi:nodetypes="cscsc"
       style="fill:#000000"
       d="m 284.4,343.28 c -5.3803,2.0076 -11.56,3.1432 -18.126,3.1432 -5.7782,0 -11.237,-0.88157 -16.135,-2.4622 4.5301,3.7546 10.363,7.5626 16.737,7.5626 6.7511,0 12.892,-4.0823 17.523,-8.2436 z" />
    <path
       id="path4626"
       sodipodi:nodetypes="cscsc"
       style="fill:#000000"
       d="m 313.2,382.39 c -14.201,5.2991 -29.731,9.4698 -47.061,9.4698 -15.252,0 -30.443,-3.5002 -43.371,-7.6722 11.957,9.9105 27.355,15.832 44.179,15.832 17.82,0 34.029,-6.646 46.253,-17.63 z" />
  </g>
  <metadata
     id="metadata22">
    <rdf:RDF>
      <cc:Work>
        <dc:format>image/svg+xml</dc:format>
        <dc:type
           rdf:resource="http://purl.org/dc/dcmitype/StillImage" />
        <cc:license
           rdf:resource="http://creativecommons.org/licenses/publicdomain/" />
        <dc:publisher>
          <cc:Agent
             rdf:about="http://openclipart.org/">
            <dc:title>Openclipart</dc:title>
          </cc:Agent>
        </dc:publisher>
        <dc:date>2010-03-02T22:51:23</dc:date>
        <dc:description />
        <dc:source>https://openclipart.org/detail/29779/green-bottle-by-rg1024</dc:source>
        <dc:creator>
          <cc:Agent>
            <dc:title>rg1024</dc:title>
          </cc:Agent>
        </dc:creator>
        <dc:subject>
          <rdf:Bag>
            <rdf:li>bottle</rdf:li>
            <rdf:li>drinks</rdf:li>
            <rdf:li>wine</rdf:li>
          </rdf:Bag>
        </dc:subject>
      </cc:Work>
      <cc:License
         rdf:about="http://creativecommons.org/licenses/publicdomain/">
        <cc:permits
           rdf:resource="http://creativecommons.org/ns#Reproduction" />
        <cc:permits
           rdf:resource="http://creativecommons.org/ns#Distribution" />
        <cc:permits
           rdf:resource="http://creativecommons.org/ns#DerivativeWorks" />
      </cc:License>
    </rdf:RDF>
  </metadata>
</svg>
