<?xml version="1.0" encoding="UTF-8" standalone="no"?>
<svg
   version="1.0"
   width="1055.000000pt"
   height="1280.000000pt"
   viewBox="0 0 1055.000000 1280.000000"
   preserveAspectRatio="xMidYMid meet"
   id="svg10"
   sodipodi:docname="fantome.svg"
   inkscape:version="1.2.2 (732a01da63, 2022-12-09)"
   xmlns:inkscape="http://www.inkscape.org/namespaces/inkscape"
   xmlns:sodipodi="http://sodipodi.sourceforge.net/DTD/sodipodi-0.dtd"
   xmlns="http://www.w3.org/2000/svg"
   xmlns:svg="http://www.w3.org/2000/svg">
  <defs
     id="defs14" />
  <sodipodi:namedview
     id="namedview12"
     pagecolor="#ffffff"
     bordercolor="#000000"
     borderopacity="0.25"
     inkscape:showpageshadow="2"
     inkscape:pageopacity="0.0"
     inkscape:pagecheckerboard="0"
     inkscape:deskcolor="#d1d1d1"
     inkscape:document-units="pt"
     showgrid="false"
     inkscape:zoom="0.49042969"
     inkscape:cx="703.46476"
     inkscape:cy="852.31382"
     inkscape:window-width="1920"
     inkscape:window-height="1017"
     inkscape:window-x="-8"
     inkscape:window-y="-8"
     inkscape:window-maximized="1"
     inkscape:current-layer="svg10" />
  <g
     transform="translate(0.000000,1280.000000) scale(0.100000,-0.100000)"
     fill="#000000"
     stroke="none"
     id="g8">
    <path
       d="M4798 12789 c-2 -6 -55 -17 -118 -24 -721 -84 -1389 -333 -2015 -750 -462 -308 -773 -610 -1044 -1010 -368 -544 -650 -1278 -891 -2319 -328 -1420 -615 -3562 -694 -5186 -9 -173 -20 -396 -26 -495 -13 -227 -13 -534 0 -701 5 -71 14 -208 20 -304 59 -930 289 -1454 695 -1583 100 -31 266 -30 385 3 127 35 299 128 560 301 370 246 471 294 615 287 67 -2 92 -9 158 -40 83 -40 213 -126 426 -282 232 -171 411 -269 576 -318 68 -20 102 -23 230 -23 132 1 162 4 249 28 130 36 275 98 471 202 444 236 575 292 710 302 42 3 95 1 126 -7 86 -19 243 -101 384 -199 428 -297 578 -384 750 -433 106 -30 352 -33 455 -4 183 50 296 101 620 276 388 210 527 263 685 263 180 1 327 -74 736 -375 338 -248 477 -326 668 -372 130 -32 169 -32 284 0 122 34 197 75 280 154 290 272 422 788 454 1765 3 99 1 270 -6 380 -6 110 -16 286 -22 390 -92 1692 -526 4434 -990 6264 -342 1347 -687 2109 -1174 2596 -155 156 -252 235 -440 360 -671 445 -1583 764 -2385 835 -69 6 -166 15 -217 20 -129 14 -510 13 -515 -1z m692 -449 c468 -47 949 -169 1405 -356 303 -125 704 -344 905 -496 524 -395 850 -987 1186 -2158 285 -992 618 -2655 838 -4180 234 -1624 326 -2879 266 -3638 -56 -709 -219 -1098 -448 -1069 -83 11 -251 105 -457 257 -411 302 -619 423 -820 477 -83 22 -123 26 -235 27 -261 2 -434 -61 -940 -337 -369 -201 -532 -253 -688 -216 -91 21 -265 115 -437 236 -372 261 -472 319 -650 379 -99 33 -123 38 -240 42 -154 5 -261 -14 -420 -73 -93 -34 -163 -69 -618 -304 -276 -144 -418 -180 -561 -147 -127 30 -234 93 -541 316 -276 201 -408 276 -570 321 -111 31 -276 32 -392 1 -179 -48 -311 -118 -668 -355 -404 -269 -519 -299 -645 -169 -65 67 -106 141 -153 277 -92 265 -137 590 -159 1132 -48 1212 189 3637 537 5479 273 1450 574 2350 997 2981 304 456 786 857 1389 1158 385 191 750 312 1146 379 128 21 197 29 443 50 74 6 417 -3 530 -14z"
       id="path2" />
    <path
       d="M6405 10119 c-38 -5 -112 -21 -163 -34 -257 -68 -454 -186 -644 -384 -182 -189 -296 -407 -355 -673 -25 -118 -25 -419 1 -537 99 -455 390 -813 807 -992 303 -131 668 -144 984 -36 326 112 609 358 768 666 111 214 150 377 150 626 1 190 -17 299 -74 462 -156 443 -526 772 -989 879 -120 28 -364 40 -485 23z"
       id="path4" />
    <path
       d="M3405 10064 c-458 -82 -853 -399 -1030 -829 -128 -309 -136 -663 -23 -984 134 -381 449 -695 831 -830 511 -180 1076 -45 1448 346 183 193 299 415 356 683 14 64 18 129 18 265 0 192 -12 271 -62 424 -155 477 -579 842 -1072 925 -117 20 -355 20 -466 0z"
       id="path6" />
  </g>
  <path
     style="fill:#ffffff;stroke-width:2.03903"
     d="m 1264.6953,1637.5248 c -9.2586,-5.0349 -30.8214,-19.1483 -47.9171,-31.3632 -70.7428,-50.5457 -92.8624,-60.5066 -134.0542,-60.368 -36.0627,0.1216 -50.1159,5.0538 -122.34168,42.939 -21.86858,11.471 -47.08683,23.2953 -56.04055,26.2764 -31.17477,10.3794 -45.18257,5.6308 -107.77013,-36.5339 -59.67019,-40.1992 -75.65103,-46.8311 -112.38718,-46.6394 -30.66372,0.1601 -44.59885,4.902 -109.17849,37.1524 -61.98358,30.9539 -68.56185,33.3589 -88.49076,32.3525 -19.39934,-0.9796 -30.22923,-6.5597 -78.50749,-40.451 -40.25602,-28.2598 -57.97163,-38.5025 -75.50644,-43.6561 -12.95857,-3.8086 -42.8346,-4.3162 -56.8393,-0.9658 -16.50153,3.9478 -45.06853,18.6435 -78.89575,40.5862 -40.98691,26.5869 -64.05419,38.6857 -73.75746,38.6857 -44.596804,0 -68.397525,-115.7058 -61.819728,-300.5329 10.486614,-294.6597 68.336298,-680.73648 129.250448,-862.59081 12.67828,-37.84997 22.06563,-61.17319 38.02368,-94.4712 24.93307,-52.02527 46.40398,-83.7372 80.23941,-118.51139 C 386.59878,139.37589 501.5386,81.806518 616.80605,65.114954 737.66727,47.61337 884.79301,81.391162 1006.2605,154.52766 c 29.7684,17.92382 46.968,31.49016 68.9215,54.36258 42.7348,44.52359 75.0033,106.74846 107.3355,206.98004 68.0763,211.03993 145.4374,657.59502 161.3773,931.52432 3.5272,60.6158 1.4389,162.0217 -4.0685,197.5607 -9.9647,64.3021 -26.7943,98.6214 -49.4566,100.8532 -7.5179,0.7403 -11.3589,-0.4989 -25.6744,-8.2837 z M 531.16687,722.91808 c 8.97172,-2.26613 24.77341,-8.28526 35.11486,-13.37582 46.3883,-22.83457 78.18851,-60.48789 95.5413,-113.12649 5.2823,-16.02354 5.71829,-19.79425 5.7762,-49.95619 0.0532,-27.75108 -0.61603,-34.99672 -4.48054,-48.50543 -19.90135,-69.56683 -73.5438,-119.55334 -142.8361,-133.10122 -19.37052,-3.78729 -53.28894,-3.73898 -71.54781,0.10195 -59.59692,12.5366 -111.01222,55.51016 -133.35183,111.45716 -9.70131,24.29586 -12.38865,39.27269 -12.38588,69.02811 0.002,22.11171 0.90684,30.90962 4.59924,44.72235 19.65694,73.53405 76.79414,124.64855 152.84474,136.73377 17.05141,2.70966 52.0402,0.74163 70.72582,-3.9781 z m 392.12381,-6.22698 c 31.62182,-7.55267 57.30977,-22.05387 82.63332,-46.64765 25.4231,-24.69047 42.0533,-52.86945 50.5601,-85.67142 5.773,-22.26032 5.6793,-68.15477 -0.1857,-90.92719 -16.5929,-64.42666 -64.64371,-113.20801 -129.99126,-131.96772 -21.33788,-6.12559 -74.21515,-6.70025 -93.36405,-1.01466 -32.77236,9.73057 -58.31421,24.07945 -80.13514,45.01823 -24.7015,23.70291 -39.49226,47.38757 -50.47573,80.82755 -5.26908,16.04208 -5.70202,19.83522 -5.81851,50.97571 -0.0995,26.59757 0.63446,36.20629 3.50441,45.87814 16.59714,55.93297 45.98737,93.02234 93.68746,118.23007 38.94648,20.58177 84.8008,25.99537 129.58514,15.29894 z"
     id="path260"
     transform="scale(0.75)" />
</svg>
